# Blender 5.2.2 LTS
# www.blender.org
mtllib hearth.mtl
o Cube
v 0.000000 0.176833 0.994458
v 0.000000 -0.198698 0.832182
v 0.000000 -0.617992 0.463596
v 0.000000 -0.961793 -0.000000
v 0.000000 0.532398 0.985803
v 0.000000 0.790597 0.793957
v 0.000000 0.827380 0.414591
v 0.000000 0.709099 0.193175
v 0.000000 0.444408 -0.000000
v -0.306304 0.197138 0.748476
v -0.306304 -0.062283 0.641236
v -0.306304 -0.415105 0.333204
v -0.306304 -0.670455 0.000000
v -0.306304 0.465069 0.730507
v -0.306304 0.580066 0.616558
v -0.306304 0.597373 0.420615
v -0.306304 0.495073 0.231054
v -0.306304 0.123792 0.000000
v 0.306304 0.197138 0.748476
v 0.306304 -0.062283 0.641236
v 0.306304 -0.415105 0.333204
v 0.306304 -0.670455 0.000000
v 0.306304 0.465069 0.730507
v 0.306304 0.580066 0.616558
v 0.306304 0.597373 0.420615
v 0.306304 0.495073 0.231054
v 0.306304 0.123792 0.000000
v 0.000000 0.176833 -0.994458
v 0.000000 -0.198698 -0.832182
v 0.000000 -0.617992 -0.463596
v 0.000000 0.532398 -0.985803
v 0.000000 0.790597 -0.793957
v 0.000000 0.827380 -0.414591
v 0.000000 0.709099 -0.193175
v -0.306304 0.197138 -0.748476
v -0.306304 -0.062283 -0.641236
v -0.306304 -0.415105 -0.333204
v -0.306304 0.465069 -0.730507
v -0.306304 0.580066 -0.616558
v -0.306304 0.597373 -0.420615
v -0.306304 0.495073 -0.231054
v 0.306304 0.197138 -0.748476
v 0.306304 -0.062283 -0.641236
v 0.306304 -0.415105 -0.333204
v 0.306304 0.465069 -0.730507
v 0.306304 0.580066 -0.616558
v 0.306304 0.597373 -0.420615
v 0.306304 0.495073 -0.231054
v -0.186167 0.182986 0.904846
v -0.250000 0.189069 0.837634
v -0.250000 -0.116317 0.706217
v -0.186167 -0.158705 0.757193
v -0.250000 -0.484958 0.382681
v -0.186167 -0.540216 0.421820
v -0.250000 -0.768939 0.000000
v -0.186167 -0.853037 0.000000
v -0.186167 0.506510 0.896971
v -0.250000 0.489762 0.829695
v -0.186167 0.741443 0.722412
v -0.250000 0.683724 0.684552
v -0.186167 0.774911 0.377232
v -0.250000 0.711203 0.392800
v -0.186167 0.667288 0.175767
v -0.250000 0.605132 0.195721
v -0.186167 0.426450 0.000000
v -0.250000 0.336229 0.000000
v 0.250000 0.189069 0.837634
v 0.186167 0.182986 0.904846
v 0.186167 -0.158705 0.757193
v 0.250000 -0.116317 0.706217
v 0.186167 -0.540216 0.421820
v 0.250000 -0.484958 0.382681
v 0.186167 -0.853037 0.000000
v 0.250000 -0.768939 0.000000
v 0.250000 0.489762 0.829695
v 0.186167 0.506510 0.896971
v 0.250000 0.683724 0.684552
v 0.186167 0.741443 0.722412
v 0.250000 0.711203 0.392800
v 0.186167 0.774911 0.377232
v 0.250000 0.605132 0.195721
v 0.186167 0.667288 0.175767
v 0.250000 0.336229 0.000000
v 0.186167 0.426450 0.000000
v -0.250000 0.189069 -0.837634
v -0.186167 0.182986 -0.904846
v -0.186167 -0.158705 -0.757193
v -0.250000 -0.116317 -0.706217
v -0.186167 -0.540216 -0.421820
v -0.250000 -0.484958 -0.382681
v -0.250000 0.489762 -0.829695
v -0.186167 0.506510 -0.896971
v -0.250000 0.683724 -0.684552
v -0.186167 0.741443 -0.722412
v -0.250000 0.711203 -0.392800
v -0.186167 0.774911 -0.377232
v -0.250000 0.605132 -0.195721
v -0.186167 0.667288 -0.175767
v 0.186167 0.182986 -0.904846
v 0.250000 0.189069 -0.837634
v 0.250000 -0.116317 -0.706217
v 0.186167 -0.158705 -0.757193
v 0.250000 -0.484958 -0.382681
v 0.186167 -0.540216 -0.421820
v 0.186167 0.506510 -0.896971
v 0.250000 0.489762 -0.829695
v 0.186167 0.741443 -0.722412
v 0.250000 0.683724 -0.684552
v 0.186167 0.774911 -0.377232
v 0.250000 0.711203 -0.392800
v 0.186167 0.667288 -0.175767
v 0.250000 0.605132 -0.195721
vn 1.0000 -0.0000 -0.0000
vn -0.7073 -0.2800 0.6492
vn -0.7192 -0.4585 0.5220
vn -0.7272 -0.5513 0.4090
vn -0.7258 0.0174 0.6876
vn -0.7102 0.4207 0.5644
vn -0.6938 0.7169 0.0686
vn -0.7072 0.6231 -0.3341
vn -0.6383 0.4534 -0.6221
vn 0.7073 -0.2800 0.6492
vn 0.7192 -0.4585 0.5220
vn 0.7272 -0.5513 0.4090
vn 0.7258 0.0174 0.6876
vn 0.7102 0.4207 0.5644
vn 0.6938 0.7169 0.0686
vn 0.7072 0.6231 -0.3341
vn 0.6383 0.4534 -0.6221
vn -0.7073 -0.2800 -0.6492
vn -0.7192 -0.4585 -0.5220
vn -0.7272 -0.5513 -0.4090
vn -0.7258 0.0174 -0.6876
vn -0.7102 0.4207 -0.5644
vn -0.6938 0.7169 -0.0686
vn -0.7072 0.6231 0.3341
vn -0.6383 0.4534 0.6221
vn 0.7073 -0.2800 -0.6492
vn 0.7192 -0.4585 -0.5220
vn 0.7272 -0.5513 -0.4090
vn 0.7258 0.0174 -0.6876
vn 0.7102 0.4207 -0.5644
vn 0.6938 0.7169 -0.0686
vn 0.7072 0.6231 0.3341
vn 0.6383 0.4534 0.6221
vn -0.8278 -0.2184 0.5168
vn -0.4141 -0.3611 0.8355
vn -0.8590 0.0233 0.5115
vn -0.4330 0.0219 0.9011
vn -0.4061 -0.6033 0.6863
vn -0.8302 -0.3672 0.4194
vn -0.4248 -0.7272 0.5393
vn -0.8247 -0.4517 0.3403
vn -0.8247 -0.4517 -0.3403
vn -0.4248 -0.7272 -0.5393
vn -0.8818 0.3030 0.3613
vn -0.4223 0.5406 0.7276
vn -0.8904 0.4533 0.0416
vn -0.2872 0.9534 0.0924
vn -0.8959 0.3911 -0.2108
vn -0.1522 0.8718 -0.4657
vn -0.8797 0.2638 -0.3957
vn -0.0568 0.5886 -0.8065
vn -0.8797 0.2638 0.3957
vn -0.0568 0.5886 0.8065
vn 0.8278 -0.2184 0.5168
vn 0.4330 0.0219 0.9011
vn 0.4141 -0.3611 0.8355
vn 0.8590 0.0233 0.5115
vn 0.8302 -0.3672 0.4194
vn 0.4061 -0.6033 0.6863
vn 0.8247 -0.4517 0.3403
vn 0.4248 -0.7272 0.5393
vn 0.8247 -0.4517 -0.3403
vn 0.4248 -0.7272 -0.5393
vn 0.4223 0.5406 0.7276
vn 0.8818 0.3030 0.3613
vn 0.2872 0.9534 0.0924
vn 0.8904 0.4533 0.0416
vn 0.1522 0.8718 -0.4657
vn 0.8959 0.3911 -0.2108
vn 0.0568 0.5886 -0.8065
vn 0.8797 0.2638 -0.3957
vn 0.8797 0.2638 0.3957
vn 0.0568 0.5886 0.8065
vn -0.8278 -0.2184 -0.5168
vn -0.4330 0.0219 -0.9011
vn -0.4141 -0.3611 -0.8355
vn -0.8590 0.0233 -0.5115
vn -0.8302 -0.3672 -0.4194
vn -0.4061 -0.6033 -0.6863
vn -0.4223 0.5406 -0.7276
vn -0.8818 0.3030 -0.3613
vn -0.2872 0.9534 -0.0924
vn -0.8904 0.4533 -0.0416
vn -0.1522 0.8718 0.4657
vn -0.8959 0.3911 0.2108
vn 0.8278 -0.2184 -0.5168
vn 0.4141 -0.3611 -0.8355
vn 0.8590 0.0233 -0.5115
vn 0.4330 0.0219 -0.9011
vn 0.4061 -0.6033 -0.6863
vn 0.8302 -0.3672 -0.4194
vn 0.8818 0.3030 -0.3613
vn 0.4223 0.5406 -0.7276
vn 0.8904 0.4533 -0.0416
vn 0.2872 0.9534 -0.0924
vn 0.8959 0.3911 0.2108
vn 0.1522 0.8718 0.4657
vn -1.0000 -0.0000 -0.0000
vt 0.387804 0.845578
vt 0.462306 0.713147
vt 0.488457 0.768366
vt 0.432255 0.857549
vt 0.489632 0.823567
vt 0.470176 0.848769
vt 0.524443 0.310190
vt 0.493200 0.243962
vt 0.509583 0.230859
vt 0.544918 0.307038
vt 0.419230 0.162668
vt 0.431413 0.145343
vt 0.335223 0.106240
vt 0.335893 0.083542
vt 0.526420 0.373405
vt 0.546253 0.377795
vt 0.500529 0.413872
vt 0.512902 0.428665
vt 0.445027 0.429078
vt 0.445431 0.447976
vt 0.399426 0.419491
vt 0.398145 0.438517
vt 0.327561 0.365737
vt 0.326593 0.398499
vt 0.100623 0.748912
vt 0.140391 0.674951
vt 0.155972 0.688997
vt 0.120876 0.753267
vt 0.223471 0.594196
vt 0.234610 0.612210
vt 0.322470 0.538139
vt 0.321800 0.560836
vt 0.095115 0.819468
vt 0.115173 0.816255
vt 0.125407 0.872217
vt 0.138631 0.858179
vt 0.191621 0.895475
vt 0.193139 0.876634
vt 0.239383 0.888823
vt 0.239226 0.869753
vt 0.313171 0.853095
vt 0.314138 0.820333
vt 0.114045 0.294316
vt 0.153814 0.220354
vt 0.169394 0.234401
vt 0.134298 0.298670
vt 0.236893 0.139599
vt 0.248033 0.157613
vt 0.108538 0.364871
vt 0.128596 0.361658
vt 0.138830 0.417620
vt 0.152054 0.403583
vt 0.205044 0.440879
vt 0.206561 0.422037
vt 0.252805 0.434226
vt 0.252649 0.415157
vt 0.511021 0.764786
vt 0.479778 0.698558
vt 0.496160 0.685455
vt 0.531495 0.761634
vt 0.405807 0.617265
vt 0.417990 0.599939
vt 0.512997 0.828001
vt 0.532831 0.832392
vt 0.487106 0.868469
vt 0.499479 0.883262
vt 0.431605 0.883675
vt 0.432008 0.902573
vt 0.386004 0.874087
vt 0.384722 0.893114
vt 0.501880 0.313769
vt 0.475729 0.258550
vt 0.553013 0.204492
vt 0.594624 0.300226
vt 0.503054 0.368971
vt 0.592593 0.390707
vt 0.458746 0.103271
vt 0.405990 0.181627
vt 0.337380 0.033180
vt 0.334531 0.129652
vt 0.260131 0.177320
vt 0.212089 0.095988
vt 0.483599 0.394172
vt 0.549408 0.460181
vt 0.445678 0.402952
vt 0.459087 0.491570
vt 0.401227 0.390981
vt 0.396114 0.483171
vt 0.329254 0.308380
vt 0.324950 0.454168
vt 0.252533 0.386591
vt 0.252198 0.478922
vt 0.172552 0.704591
vt 0.143189 0.758171
vt 0.051405 0.739179
vt 0.048094 0.829623
vt 0.098592 0.646067
vt 0.138759 0.813207
vt 0.246708 0.631916
vt 0.198667 0.550584
vt 0.321109 0.584249
vt 0.323957 0.487777
vt 0.392567 0.636223
vt 0.445324 0.557867
vt 0.087105 0.901523
vt 0.156694 0.839513
vt 0.175417 0.938187
vt 0.194031 0.850515
vt 0.238775 0.933519
vt 0.239111 0.841187
vt 0.311527 0.908765
vt 0.315832 0.762976
vt 0.382692 0.937768
vt 0.185975 0.249995
vt 0.156612 0.303575
vt 0.064828 0.284583
vt 0.061516 0.375026
vt 0.112015 0.191471
vt 0.152182 0.358611
vt 0.100528 0.446927
vt 0.170117 0.384916
vt 0.188839 0.483590
vt 0.207454 0.395918
vt 0.539590 0.659088
vt 0.581202 0.754822
vt 0.579171 0.845304
vt 0.535985 0.914777
vt 0.445664 0.946166
s 0
usemtl Material
f 48/1/1 43/2/1 42/3/1 47/4/1
f 45/5/1 46/6/1 47/4/1 42/3/1
f 50/7/2 51/8/2 52/9/2 49/10/2
f 51/8/3 53/11/3 54/12/3 52/9/3
f 53/11/4 55/13/4 56/14/4 54/12/4
f 58/15/5 50/7/5 49/10/5 57/16/5
f 60/17/6 58/15/6 57/16/6 59/18/6
f 62/19/7 60/17/7 59/18/7 61/20/7
f 64/21/8 62/19/8 61/20/8 63/22/8
f 66/23/9 64/21/9 63/22/9 65/24/9
f 68/25/10 69/26/10 70/27/10 67/28/10
f 69/26/11 71/29/11 72/30/11 70/27/11
f 71/29/12 73/31/12 74/32/12 72/30/12
f 76/33/13 68/25/13 67/28/13 75/34/13
f 78/35/14 76/33/14 75/34/14 77/36/14
f 80/37/15 78/35/15 77/36/15 79/38/15
f 82/39/16 80/37/16 79/38/16 81/40/16
f 84/41/17 82/39/17 81/40/17 83/42/17
f 86/43/18 87/44/18 88/45/18 85/46/18
f 87/44/19 89/47/19 90/48/19 88/45/19
f 89/47/20 56/14/20 55/13/20 90/48/20
f 92/49/21 86/43/21 85/46/21 91/50/21
f 94/51/22 92/49/22 91/50/22 93/52/22
f 96/53/23 94/51/23 93/52/23 95/54/23
f 98/55/24 96/53/24 95/54/24 97/56/24
f 65/24/25 98/55/25 97/56/25 66/23/25
f 100/57/26 101/58/26 102/59/26 99/60/26
f 101/58/27 103/61/27 104/62/27 102/59/27
f 103/61/28 74/32/28 73/31/28 104/62/28
f 106/63/29 100/57/29 99/60/29 105/64/29
f 108/65/30 106/63/30 105/64/30 107/66/30
f 110/67/31 108/65/31 107/66/31 109/68/31
f 112/69/32 110/67/32 109/68/32 111/70/32
f 83/42/33 112/69/33 111/70/33 84/41/33
f 51/8/34 50/7/34 10/71/34 11/72/34
f 2/73/35 1/74/35 49/10/35 52/9/35
f 50/7/36 58/15/36 14/75/36 10/71/36
f 1/74/37 5/76/37 57/16/37 49/10/37
f 3/77/38 2/73/38 52/9/38 54/12/38
f 53/11/39 51/8/39 11/72/39 12/78/39
f 4/79/40 3/77/40 54/12/40 56/14/40
f 55/13/41 53/11/41 12/78/41 13/80/41
f 55/13/42 13/80/42 37/81/42 90/48/42
f 4/79/43 56/14/43 89/47/43 30/82/43
f 58/15/44 60/17/44 15/83/44 14/75/44
f 5/76/45 6/84/45 59/18/45 57/16/45
f 60/17/46 62/19/46 16/85/46 15/83/46
f 6/84/47 7/86/47 61/20/47 59/18/47
f 62/19/48 64/21/48 17/87/48 16/85/48
f 7/86/49 8/88/49 63/22/49 61/20/49
f 64/21/50 66/23/50 18/89/50 17/87/50
f 8/88/51 9/90/51 65/24/51 63/22/51
f 97/56/52 41/91/52 18/89/52 66/23/52
f 34/92/53 98/55/53 65/24/53 9/90/53
f 70/27/54 20/93/54 19/94/54 67/28/54
f 1/95/55 68/25/55 76/33/55 5/96/55
f 2/97/56 69/26/56 68/25/56 1/95/56
f 67/28/57 19/94/57 23/98/57 75/34/57
f 72/30/58 21/99/58 20/93/58 70/27/58
f 3/100/59 71/29/59 69/26/59 2/97/59
f 74/32/60 22/101/60 21/99/60 72/30/60
f 4/102/61 73/31/61 71/29/61 3/100/61
f 74/32/62 103/61/62 44/103/62 22/101/62
f 4/102/63 30/104/63 104/62/63 73/31/63
f 5/96/64 76/33/64 78/35/64 6/105/64
f 75/34/65 23/98/65 24/106/65 77/36/65
f 6/105/66 78/35/66 80/37/66 7/107/66
f 77/36/67 24/106/67 25/108/67 79/38/67
f 7/107/68 80/37/68 82/39/68 8/109/68
f 79/38/69 25/108/69 26/110/69 81/40/69
f 8/109/70 82/39/70 84/41/70 9/111/70
f 81/40/71 26/110/71 27/112/71 83/42/71
f 112/69/72 83/42/72 27/112/72 48/1/72
f 34/113/73 9/111/73 84/41/73 111/70/73
f 88/45/74 36/114/74 35/115/74 85/46/74
f 28/116/75 86/43/75 92/49/75 31/117/75
f 29/118/76 87/44/76 86/43/76 28/116/76
f 85/46/77 35/115/77 38/119/77 91/50/77
f 90/48/78 37/81/78 36/114/78 88/45/78
f 30/82/79 89/47/79 87/44/79 29/118/79
f 31/117/80 92/49/80 94/51/80 32/120/80
f 91/50/81 38/119/81 39/121/81 93/52/81
f 32/120/82 94/51/82 96/53/82 33/122/82
f 93/52/83 39/121/83 40/123/83 95/54/83
f 33/122/84 96/53/84 98/55/84 34/92/84
f 95/54/85 40/123/85 41/91/85 97/56/85
f 101/58/86 100/57/86 42/3/86 43/2/86
f 29/124/87 28/125/87 99/60/87 102/59/87
f 100/57/88 106/63/88 45/5/88 42/3/88
f 28/125/89 31/126/89 105/64/89 99/60/89
f 30/104/90 29/124/90 102/59/90 104/62/90
f 103/61/91 101/58/91 43/2/91 44/103/91
f 106/63/92 108/65/92 46/6/92 45/5/92
f 31/126/93 32/127/93 107/66/93 105/64/93
f 108/65/94 110/67/94 47/4/94 46/6/94
f 32/127/95 33/128/95 109/68/95 107/66/95
f 110/67/96 112/69/96 48/1/96 47/4/96
f 33/128/97 34/113/97 111/70/97 109/68/97
f 48/1/1 27/112/1 44/103/1 43/2/1
f 20/93/1 21/99/1 27/112/1 26/110/1
f 19/94/1 20/93/1 26/110/1 25/108/1
f 23/98/1 19/94/1 25/108/1 24/106/1
f 21/99/1 22/101/1 44/103/1 27/112/1
f 13/80/98 12/78/98 18/89/98 37/81/98
f 36/114/98 37/81/98 18/89/98 41/91/98
f 35/115/98 36/114/98 41/91/98 40/123/98
f 38/119/98 35/115/98 40/123/98 39/121/98
f 11/72/98 17/87/98 18/89/98 12/78/98
f 10/71/98 16/85/98 17/87/98 11/72/98
f 14/75/98 15/83/98 16/85/98 10/71/98
